<svg width="371" height="120" viewBox="0 0 371 120" fill="none" xmlns="http://www.w3.org/2000/svg">
<g clip-path="url(#clip0_11_2)">
<path d="M10.1652 0.855478C11.3488 0.855478 12.5057 1.20621 13.4898 1.86333C14.4739 2.52045 15.2409 3.45444 15.6938 4.54718C16.1467 5.63993 16.2652 6.84236 16.0343 8.00241C15.8034 9.16247 15.2335 10.228 14.3966 11.0644C13.5597 11.9007 12.4934 12.4703 11.3326 12.7011C10.1718 12.9318 8.96863 12.8134 7.87518 12.3608C6.78173 11.9081 5.84714 11.1416 5.18959 10.1582C4.53205 9.17473 4.18109 8.01851 4.18109 6.83573C4.17968 6.04999 4.3335 5.27171 4.63373 4.54552C4.93396 3.81933 5.3747 3.15951 5.93065 2.60391C6.48661 2.04832 7.14686 1.60787 7.87352 1.30783C8.60018 1.0078 9.37896 0.854071 10.1652 0.855478Z" fill="#52A6CC"/>
<path d="M10.1652 17.3706C12.0673 17.3706 13.9267 17.9343 15.5083 18.9903C17.0899 20.0464 18.3225 21.5475 19.0504 23.3037C19.7784 25.0599 19.9688 26.9923 19.5977 28.8567C19.2266 30.7211 18.3107 32.4336 16.9657 33.7778C15.6207 35.1219 13.907 36.0373 12.0414 36.4081C10.1759 36.779 8.24214 36.5886 6.4848 35.8612C4.72746 35.1338 3.22544 33.9019 2.16868 32.3213C1.11191 30.7408 0.547867 28.8826 0.547867 26.9817C0.547867 24.4327 1.56111 21.988 3.36471 20.1856C5.16831 18.3832 7.61452 17.3706 10.1652 17.3706Z" fill="#F6921E" stroke="#F6921E" stroke-miterlimit="10"/>
<path d="M10.1652 20.9908C11.3488 20.9908 12.5057 21.3415 13.4898 21.9986C14.4739 22.6557 15.2409 23.5897 15.6938 24.6825C16.1467 25.7752 16.2652 26.9776 16.0343 28.1377C15.8034 29.2978 15.2335 30.3633 14.3966 31.1997C13.5597 32.036 12.4934 32.6056 11.3326 32.8363C10.1718 33.0671 8.96863 32.9487 7.87518 32.496C6.78173 32.0434 5.84714 31.2769 5.18959 30.2935C4.53205 29.31 4.18109 28.1538 4.18109 26.971C4.17968 26.1853 4.3335 25.407 4.63373 24.6808C4.93396 23.9546 5.3747 23.2948 5.93065 22.7392C6.48661 22.1836 7.14686 21.7432 7.87352 21.4431C8.60018 21.1431 9.37896 20.9894 10.1652 20.9908Z" fill="#0C4B7E" stroke="#0C4B7E" stroke-miterlimit="10"/>
<path d="M14.0121 43.9507H7.17314C6.3469 43.9507 5.67711 44.62 5.67711 45.4457V85.1716C5.67711 85.9973 6.3469 86.6667 7.17314 86.6667H14.0121C14.8384 86.6667 15.5082 85.9973 15.5082 85.1716V45.4457C15.5082 44.62 14.8384 43.9507 14.0121 43.9507Z" fill="#0C4B7E" stroke="#0C4B7E" stroke-miterlimit="10"/>
<path d="M39.1187 64.0432V85.1876C39.1417 85.3896 39.1188 85.5941 39.0518 85.7859C38.9847 85.9778 38.8752 86.152 38.7315 86.2957C38.5877 86.4394 38.4133 86.5488 38.2213 86.6158C38.0293 86.6828 37.8247 86.7057 37.6227 86.6827H30.7837C30.5816 86.7057 30.377 86.6828 30.185 86.6158C29.9931 86.5488 29.8187 86.4394 29.6749 86.2957C29.5311 86.152 29.4216 85.9778 29.3546 85.7859C29.2875 85.5941 29.2647 85.3896 29.2877 85.1876V64.0432C29.2877 49.8401 38.3707 42.6852 50.2321 42.6852C62.0934 42.6852 71.1765 49.8401 71.1765 64.0432V85.1876C71.1995 85.3896 71.1766 85.5941 71.1096 85.7859C71.0425 85.9778 70.933 86.152 70.7892 86.2957C70.6454 86.4394 70.4711 86.5488 70.2791 86.6158C70.0871 86.6828 69.8825 86.7057 69.6804 86.6827H62.8414C62.6394 86.7057 62.4348 86.6828 62.2428 86.6158C62.0508 86.5488 61.8765 86.4394 61.7327 86.2957C61.5889 86.152 61.4794 85.9778 61.4123 85.7859C61.3453 85.5941 61.3224 85.3896 61.3454 85.1876V64.0432C61.3454 54.2185 55.0407 52.0827 50.2321 52.0827C45.4234 52.0827 39.1187 54.2025 39.1187 64.0432Z" fill="#0C4B7E" stroke="#0C4B7E" stroke-miterlimit="10"/>
<path d="M127.278 85.1716C127.301 85.3735 127.278 85.578 127.211 85.7699C127.144 85.9617 127.034 86.136 126.89 86.2797C126.747 86.4234 126.572 86.5328 126.38 86.5998C126.188 86.6668 125.984 86.6897 125.782 86.6667H118.943C118.74 86.6897 118.536 86.6668 118.344 86.5998C118.152 86.5328 117.978 86.4234 117.834 86.2797C117.69 86.136 117.58 85.9617 117.513 85.7699C117.446 85.578 117.423 85.3735 117.447 85.1716V80.9C113.813 86.5599 107.081 87.8414 102.914 87.8414C89.6631 87.8414 82.3967 77.1624 82.3967 65.629C82.3967 51.2124 92.4414 42.6692 105.051 42.6692C117.553 42.6692 127.278 50.358 127.278 65.7358V85.1716ZM105.051 52.0667C99.601 52.0667 92.3346 55.2704 92.3346 65.3087C92.3346 75.1334 98.3187 78.5506 103.769 78.871C109.111 79.1914 117.447 76.2013 117.447 65.629C117.447 54.6297 110.501 52.0667 105.051 52.0667Z" fill="#0C4B7E" stroke="#0C4B7E" stroke-miterlimit="10"/>
<path d="M175.257 83.6766C179.425 87.0939 181.989 92.2198 181.989 98.6272C181.989 111.122 173.12 118.704 161.472 118.704C150.359 118.704 141.062 112.51 141.062 99.5883C141.076 97.6138 141.29 95.6458 141.704 93.7148C142.024 92.8605 142.772 92.2198 143.627 92.5401L150.359 93.7148C151.321 94.0352 151.641 94.5692 151.321 95.4235C150.934 96.5939 150.754 97.8223 150.787 99.0543C150.787 107.064 156.771 109.306 161.472 109.306C166.388 109.306 172.158 106.316 172.158 98.6272C172.158 93.0741 169.914 89.2297 167.029 87.4142C165.197 87.7608 163.337 87.9396 161.472 87.9482C148.863 87.9482 139.032 80.1525 139.032 65.3087C139.032 50.4648 148.756 42.6692 161.259 42.6692C165.533 42.6692 169.38 43.5235 172.693 45.3389L179.959 38.8247C180.105 38.6688 180.283 38.5465 180.481 38.4662C180.679 38.386 180.892 38.3496 181.106 38.3598C181.319 38.3699 181.528 38.4263 181.717 38.5251C181.907 38.6238 182.073 38.7625 182.203 38.9315L185.73 42.1352C186.007 42.4155 186.172 42.7885 186.192 43.1827C186.212 43.5768 186.085 43.9644 185.836 44.271L179.639 51.2124C182.31 54.95 183.913 59.6488 183.913 65.3087C183.913 73.8519 180.707 79.8321 175.257 83.6766ZM174.082 65.3087C174.082 54.6297 166.815 52.0667 161.472 52.0667C156.13 52.0667 148.863 54.95 148.863 65.3087C148.863 75.9877 156.13 78.5506 161.472 78.5506C166.815 78.5506 174.082 75.9877 174.082 65.3087Z" fill="#F6921E" stroke="#F6921E" stroke-miterlimit="10"/>
<path d="M229.542 66.5901V45.4457C229.519 45.2438 229.542 45.0393 229.609 44.8474C229.676 44.6556 229.785 44.4813 229.929 44.3376C230.073 44.1939 230.247 44.0845 230.439 44.0175C230.631 43.9505 230.836 43.9276 231.038 43.9506H237.877C238.079 43.9276 238.283 43.9505 238.475 44.0175C238.667 44.0845 238.842 44.1939 238.986 44.3376C239.129 44.4813 239.239 44.6556 239.306 44.8474C239.373 45.0393 239.396 45.2438 239.373 45.4457V66.5901C239.373 80.7932 230.29 87.9482 218.428 87.9482C206.567 87.9482 197.484 80.7932 197.484 66.5901V45.4457C197.461 45.2438 197.484 45.0393 197.551 44.8474C197.618 44.6556 197.727 44.4813 197.871 44.3376C198.015 44.1939 198.189 44.0845 198.381 44.0175C198.573 43.9505 198.778 43.9276 198.98 43.9506H205.819C206.021 43.9276 206.226 43.9505 206.418 44.0175C206.61 44.0845 206.784 44.1939 206.928 44.3376C207.072 44.4813 207.181 44.6556 207.248 44.8474C207.315 45.0393 207.338 45.2438 207.315 45.4457V66.5901C207.315 76.4148 213.62 78.5506 218.428 78.5506C223.237 78.5506 229.542 76.4148 229.542 66.5901Z" fill="#52A6CC"/>
<path d="M292.589 74.4926C292.955 74.637 293.25 74.9194 293.41 75.2789C293.57 75.6385 293.582 76.0464 293.444 76.4148C290.024 84.1037 282.33 87.9482 273.354 87.9482C260.852 87.9482 251.127 79.8321 251.127 65.3087C251.127 50.358 260.852 42.6692 273.354 42.6692C282.758 42.6692 290.665 46.9408 293.764 55.1636C294.085 55.9111 293.657 56.6587 292.802 56.979L286.391 58.7945C286.204 58.8872 285.998 58.9354 285.79 58.9351C285.582 58.9349 285.376 58.8862 285.189 58.7931C285.003 58.6999 284.841 58.5647 284.715 58.3982C284.59 58.2316 284.505 58.0383 284.467 57.8334C282.117 53.455 277.094 52.0667 273.354 52.0667C267.904 52.0667 260.958 54.6296 260.958 65.3087C260.958 75.9877 267.904 78.5506 273.354 78.5506C277.094 78.5506 281.689 77.1624 284.147 72.9976C284.681 72.0364 285.322 71.8229 286.177 72.1432L292.589 74.4926Z" fill="#0C4B7E" stroke="#0C4B7E" stroke-miterlimit="10"/>
<path d="M325.608 87.9482C313.106 87.9482 303.381 80.1525 303.381 65.3087C303.381 50.4648 313.106 42.6692 325.608 42.6692C338.111 42.6692 347.835 50.4648 347.835 65.3087C347.835 80.1525 338.111 87.9482 325.608 87.9482ZM325.608 52.0667C320.158 52.0667 313.213 54.6296 313.213 65.3087C313.213 75.9877 320.158 78.5506 325.608 78.5506C331.058 78.5506 338.004 75.9877 338.004 65.3087C338.004 54.6296 331.058 52.0667 325.608 52.0667Z" fill="#0C4B7E" stroke="#0C4B7E" stroke-miterlimit="10"/>
<path d="M370.489 85.1716C370.512 85.3735 370.489 85.578 370.422 85.7699C370.355 85.9617 370.246 86.136 370.102 86.2797C369.958 86.4234 369.784 86.5328 369.592 86.5998C369.4 86.6668 369.195 86.6897 368.993 86.6667H362.154C361.952 86.6897 361.747 86.6668 361.555 86.5998C361.363 86.5328 361.189 86.4234 361.045 86.2797C360.902 86.136 360.792 85.9617 360.725 85.7699C360.658 85.578 360.635 85.3735 360.658 85.1716V13.4087C360.635 13.2068 360.658 13.0023 360.725 12.8104C360.792 12.6186 360.902 12.4443 361.045 12.3006C361.189 12.1569 361.363 12.0475 361.555 11.9805C361.747 11.9135 361.952 11.8906 362.154 11.9136H368.993C369.195 11.8906 369.4 11.9135 369.592 11.9805C369.784 12.0475 369.958 12.1569 370.102 12.3006C370.246 12.4443 370.355 12.6186 370.422 12.8104C370.489 13.0023 370.512 13.2068 370.489 13.4087V85.1716Z" fill="#0C4B7E" stroke="#0C4B7E" stroke-miterlimit="10"/>
</g>
<defs>
<clipPath id="clip0_11_2">
<rect width="371" height="120" fill="white"/>
</clipPath>
</defs>
</svg>
